<svg width="24" height="24" viewBox="0 0 24 24" fill="none" xmlns="http://www.w3.org/2000/svg">
<rect width="24" height="24" rx="12" fill="#111111"/>
<path d="M12.2755 5.79129C12.3199 5.39137 12.6801 5.10317 13.0801 5.14758C16.1148 5.4846 18.5126 7.87896 18.8529 10.9139C18.8977 11.3138 18.61 11.6743 18.2101 11.7191C17.8102 11.764 17.4497 11.4761 17.4048 11.0763C17.1404 8.71827 15.2774 6.85772 12.9192 6.59584C12.5193 6.55143 12.2311 6.19122 12.2755 5.79129Z" fill="#EEEEEE"/>
<path d="M12.2843 8.31391C12.361 7.91891 12.7434 7.6609 13.1384 7.73763C14.7206 8.04495 15.9566 9.28222 16.2646 10.8636C16.3415 11.2585 16.0837 11.6411 15.6888 11.718C15.2938 11.7949 14.9113 11.5371 14.8344 11.1422C14.6397 10.1429 13.859 9.36198 12.8605 9.16805C12.4655 9.09132 12.2075 8.70891 12.2843 8.31391Z" fill="#EEEEEE"/>
<path d="M14.2218 14.1441C13.404 14.4306 12.4826 14.7535 10.866 13.1373C9.24948 11.5212 9.57149 10.5994 9.8573 9.78112C10.0854 9.12821 10.2904 8.54126 9.46912 7.72023C9.24689 7.49807 9.04691 7.28759 8.86268 7.09369C7.56791 5.73093 7.05169 5.18763 5.06811 7.17133C5.05328 7.18978 5.02778 7.21468 4.99484 7.24685C4.52234 7.70834 2.51679 9.66712 8.42733 15.5761C14.3362 21.4832 16.2938 19.4777 16.7555 19.0047C16.7878 18.9716 16.8128 18.946 16.8313 18.9312C18.8137 16.9493 18.2686 16.4307 16.901 15.1299C16.7093 14.9476 16.5014 14.7499 16.2822 14.5306C15.461 13.71 14.8744 13.9155 14.2218 14.1441Z" fill="#EEEEEE"/>
</svg>
