<svg width="24" height="24" viewBox="0 0 24 24" fill="none" xmlns="http://www.w3.org/2000/svg">
<g clip-path="url(#clip0_91_438)">
<path d="M20.4853 3.51469C18.2188 1.24823 15.2053 0 12 0C8.79464 0 5.78114 1.24823 3.51469 3.51469C1.24819 5.78119 0 8.79469 0 12C0 15.2053 1.24819 18.2188 3.51469 20.4853C5.78119 22.7518 8.79464 24 12 24C15.2053 24 18.2188 22.7518 20.4853 20.4853C22.7518 18.2188 24 15.2053 24 12C24 8.79469 22.7518 5.78123 20.4853 3.51469ZM12 22.5938C6.15858 22.5938 1.40625 17.8414 1.40625 12C1.40625 6.15858 6.15858 1.40625 12 1.40625C17.8414 1.40625 22.5938 6.15858 22.5938 12C22.5938 17.8414 17.8414 22.5938 12 22.5938Z" fill="#2F80ED"/>
<path d="M17.733 8.14972C17.4585 7.87522 17.0133 7.87522 16.7387 8.14977L10.5297 14.3588L7.26122 11.0903C6.98667 10.8158 6.54145 10.8158 6.26686 11.0903C5.99227 11.3649 5.99227 11.8101 6.26686 12.0847L10.0325 15.8503C10.1698 15.9876 10.3497 16.0562 10.5297 16.0562C10.7096 16.0562 10.8896 15.9876 11.0268 15.8503L17.733 9.14408C18.0076 8.86953 18.0076 8.42431 17.733 8.14972Z" fill="#2F80ED"/>
</g>
<defs>
<clipPath id="clip0_91_438">
<rect width="24" height="24" fill="white"/>
</clipPath>
</defs>
</svg>
