<svg width="40" height="41" viewBox="0 0 40 41" fill="none" xmlns="http://www.w3.org/2000/svg">
<rect y="0.5" width="40" height="40" rx="20" fill="white"/>
<path d="M20 6.85938C17.2311 6.85938 14.5243 7.68046 12.222 9.2188C9.91973 10.7571 8.12532 12.9436 7.06569 15.5018C6.00606 18.06 5.72882 20.8749 6.26901 23.5906C6.80921 26.3063 8.14257 28.8009 10.1005 30.7589C12.0584 32.7168 14.553 34.0502 17.2687 34.5904C19.9845 35.1306 22.7994 34.8533 25.3575 33.7936C27.9157 32.734 30.1022 30.9396 31.6406 28.6373C33.1789 26.335 34 23.6283 34 20.8594C33.9928 17.1485 32.5155 13.5917 29.8916 10.9677C27.2677 8.34377 23.7108 6.86649 20 6.85938ZM20 32.7055C17.657 32.7055 15.3667 32.0108 13.4186 30.7091C11.4705 29.4074 9.95219 27.5573 9.05558 25.3927C8.15898 23.2281 7.92438 20.8462 8.38147 18.5483C8.83856 16.2504 9.96679 14.1396 11.6235 12.4829C13.2802 10.8262 15.391 9.69793 17.6889 9.24084C19.9869 8.78376 22.3687 9.01834 24.5333 9.91496C26.6979 10.8116 28.548 12.3299 29.8497 14.278C31.1514 16.2261 31.8461 18.5164 31.8461 20.8594C31.8426 24.0001 30.5934 27.0111 28.3726 29.232C26.1517 31.4527 23.1407 32.702 20 32.7055ZM25.3307 20.9132C25.5322 21.1151 25.6453 21.3886 25.6453 21.6738C25.6453 21.9589 25.5322 22.2325 25.3307 22.4343L20.7673 27.0113C20.5614 27.2103 20.2864 27.3216 20 27.3216C19.7137 27.3216 19.4385 27.2103 19.2327 27.0113L14.6692 22.4343C14.4836 22.2295 14.3839 21.9611 14.3907 21.6847C14.3975 21.4084 14.5103 21.1452 14.7057 20.9497C14.9012 20.7543 15.1644 20.6415 15.4408 20.6347C15.7171 20.6279 15.9856 20.7275 16.1903 20.9132L18.9231 23.6459V15.4747C18.9231 15.1891 19.0365 14.9152 19.2385 14.7132C19.4404 14.5113 19.7144 14.3978 20 14.3978C20.2856 14.3978 20.5596 14.5113 20.7615 14.7132C20.9634 14.9152 21.0769 15.1891 21.0769 15.4747V23.6459L23.8096 20.9132C24.0115 20.7118 24.285 20.5987 24.5702 20.5987C24.8553 20.5987 25.1289 20.7118 25.3307 20.9132Z" fill="#49B3BF"/>
</svg>
