<svg width="13" height="8" viewBox="0 0 13 8" fill="none" xmlns="http://www.w3.org/2000/svg">
<g clip-path="url(#clip0_60_180)">
<path d="M12.3536 4.3537C12.5488 4.15844 12.5488 3.84186 12.3536 3.6466L9.17157 0.464618C8.97631 0.269348 8.65973 0.269348 8.46447 0.464618C8.2692 0.659878 8.2692 0.976458 8.46447 1.17172L11.2929 4.00015L8.46447 6.82858C8.2692 7.02384 8.2692 7.34042 8.46447 7.53568C8.65973 7.73094 8.97631 7.73094 9.17157 7.53568L12.3536 4.3537ZM1.19249e-08 4.50015L12 4.50015V3.50015L0 3.50015L1.19249e-08 4.50015Z" fill="white"/>
</g>
<defs>
<clipPath id="clip0_60_180">
<rect width="8" height="13" fill="white" transform="matrix(0 -1 1 0 0 8)"/>
</clipPath>
</defs>
</svg>
