<svg width="16" height="17" viewBox="0 0 16 17" fill="none" xmlns="http://www.w3.org/2000/svg">
<path d="M8.64488 2.42615C8.68552 2.06021 9.01512 1.7965 9.38106 1.83714C12.1579 2.14552 14.3519 4.33641 14.6633 7.11344C14.7043 7.47934 14.441 7.80922 14.0751 7.85025C13.7092 7.89128 13.3793 7.62792 13.3383 7.26202C13.0963 5.1044 11.3916 3.40195 9.2339 3.16233C8.86796 3.12169 8.60425 2.79209 8.64488 2.42615Z" fill="#333333"/>
<path d="M8.65298 4.73449C8.72319 4.37306 9.0731 4.13697 9.43453 4.20718C10.8823 4.48839 12.0133 5.62052 12.2951 7.06747C12.3655 7.42887 12.1296 7.77891 11.7682 7.84931C11.4068 7.91971 11.0568 7.68382 10.9864 7.32242C10.8083 6.40804 10.0939 5.6935 9.1803 5.51605C8.81886 5.44584 8.58278 5.09593 8.65298 4.73449Z" fill="#333333"/>
<path d="M10.4258 10.069C9.67748 10.3312 8.83438 10.6266 7.35515 9.14777C5.87601 7.66905 6.17065 6.82554 6.43218 6.07683C6.64086 5.4794 6.82846 4.94233 6.07698 4.19107C5.87364 3.98779 5.69065 3.79519 5.52208 3.61777C4.33733 2.37082 3.86498 1.87368 2.04996 3.68881C2.03639 3.7057 2.01306 3.72848 1.98292 3.75792C1.55057 4.18019 -0.284556 5.97252 5.12372 11.3793C10.5305 16.7845 12.3217 14.9494 12.7442 14.5166C12.7737 14.4863 12.7966 14.4629 12.8135 14.4493C14.6275 12.6358 14.1287 12.1613 12.8773 10.971C12.7019 10.8042 12.5117 10.6233 12.3111 10.4227C11.5597 9.67184 11.0229 9.85988 10.4258 10.069Z" fill="#333333"/>
</svg>
