<svg width="24" height="24" viewBox="0 0 24 24" fill="none" xmlns="http://www.w3.org/2000/svg">
<rect width="24" height="24" rx="12" fill="#111111"/>
<path fill-rule="evenodd" clip-rule="evenodd" d="M18.8498 6.10198C18.9755 4.67535 17.4688 5.26294 17.4688 5.26294C16.3565 5.7235 15.2093 6.19123 14.0497 6.66416C10.4539 8.13086 6.73941 9.64608 3.5751 11.1375C1.85924 11.7668 2.86374 12.3961 2.86374 12.3961L5.58378 13.2355C6.83941 13.6133 7.50875 13.1934 7.50875 13.1934L13.3677 9.20734C15.4601 7.78071 14.9578 8.95556 14.4556 9.45912L10.0617 13.655C9.39203 14.2426 9.72687 14.7461 10.0197 14.9979C10.8503 15.7304 12.8925 17.0707 13.784 17.6557C14.0159 17.8078 14.1699 17.9091 14.2048 17.9352C14.4139 18.1029 15.5438 18.8583 16.2972 18.6905C17.0506 18.5224 17.1343 17.5574 17.1343 17.5574L18.1384 10.9695C18.2889 9.82587 18.4619 8.72659 18.6 7.84846C18.7303 7.01919 18.8296 6.38763 18.8498 6.10198Z" fill="#EEEEEE"/>
</svg>
