<svg width="24" height="24" viewBox="0 0 24 24" fill="none" xmlns="http://www.w3.org/2000/svg">
<rect width="24" height="24" rx="12" fill="#111111"/>
<path fill-rule="evenodd" clip-rule="evenodd" d="M17.4035 6.52778C15.9601 5.0826 14.0404 4.2864 11.9952 4.28564C7.78137 4.28564 4.35145 7.71505 4.34994 11.9304C4.34943 13.2779 4.70146 14.5932 5.37036 15.7524L4.28564 19.7142L8.33851 18.6512C9.45511 19.2604 10.7125 19.5813 11.9919 19.5818H11.995C16.2085 19.5818 19.6384 16.1519 19.6402 11.9368C19.6415 9.89365 18.8471 7.97296 17.4035 6.52778ZM15.4808 13.5312C15.2897 13.4356 14.3507 12.9736 14.1754 12.9098C14.0004 12.846 13.8728 12.8141 13.7455 13.0055C13.6182 13.1968 13.2522 13.6269 13.1407 13.7544C13.0292 13.882 12.9177 13.8978 12.7269 13.8022C12.6957 13.7865 12.6531 13.768 12.6005 13.7452C12.3315 13.6285 11.8009 13.3985 11.1907 12.8539C10.6228 12.3473 10.2394 11.7218 10.1279 11.5307C10.0164 11.3394 10.1159 11.236 10.2116 11.1409C10.2689 11.0837 10.3348 11.0035 10.4006 10.9233C10.4334 10.8833 10.4663 10.8433 10.498 10.8062C10.579 10.7116 10.6142 10.6399 10.6619 10.5426C10.6705 10.5252 10.6794 10.5069 10.6891 10.4876C10.7529 10.36 10.721 10.2485 10.6733 10.1529C10.6414 10.0889 10.4604 9.64825 10.2962 9.24868C10.2146 9.04999 10.1371 8.86145 10.0843 8.73446C9.94731 8.40563 9.8086 8.40648 9.69723 8.40715C9.68245 8.40726 9.66814 8.40735 9.65439 8.40664C9.54317 8.40103 9.41562 8.40002 9.28832 8.40002C9.16102 8.40002 8.95413 8.44771 8.77887 8.63905C8.76759 8.6514 8.75496 8.66486 8.74125 8.67951C8.54219 8.89203 8.11025 9.35317 8.11025 10.2327C8.11025 11.1707 8.79135 12.077 8.88964 12.2078L8.89037 12.2087C8.89657 12.2171 8.90768 12.233 8.92356 12.2558C9.15159 12.5829 10.3621 14.3196 12.1537 15.0932C12.6096 15.2902 12.9652 15.4075 13.2427 15.4955C13.7004 15.641 14.1167 15.6205 14.4461 15.5713C14.8131 15.5165 15.5762 15.1093 15.7354 14.6631C15.8946 14.217 15.8946 13.8343 15.8469 13.7547C15.8084 13.6903 15.7181 13.6466 15.5843 13.5819C15.5522 13.5664 15.5177 13.5497 15.4808 13.5312Z" fill="#EEEEEE"/>
</svg>
