<svg width="48" height="50" viewBox="0 0 48 50" fill="none" xmlns="http://www.w3.org/2000/svg">
<path d="M47.4228 3.10449L46.2864 1.13631C45.9851 0.614319 45.4886 0.233432 44.9064 0.0774427C44.3243 -0.0785575 43.7039 0.00311306 43.1819 0.304488L42.0205 0.973808C41.4887 0.513193 40.8263 0.230216 40.1259 0.164409C39.4255 0.098602 38.722 0.25325 38.1137 0.606762L21.1057 10.4261C20.7622 10.2264 20.3721 10.1209 19.9747 10.1198C19.5773 10.1188 19.1866 10.2224 18.8421 10.4204L17.8568 10.9886C17.3354 11.2902 16.9549 11.7864 16.7992 12.3684C16.6434 12.9503 16.725 13.5703 17.0262 14.092L21.5716 21.9636C21.7207 22.2223 21.9192 22.4493 22.1561 22.6313C22.3929 22.8133 22.6632 22.9469 22.9516 23.0243C23.24 23.1018 23.5409 23.1217 23.837 23.0828C24.1331 23.0438 24.4187 22.947 24.6773 22.7977L25.6614 22.2295C26.0038 22.0294 26.2879 21.7433 26.4855 21.3994C26.683 21.0554 26.7872 20.6659 26.7875 20.2693L33.2228 16.5579C33.5427 16.72 33.8806 16.8435 34.2296 16.9261C35.6232 18.971 36.367 21.3889 36.3637 23.8636C36.3572 26.9893 35.1808 29.9994 33.0661 32.3011C30.9514 34.6028 28.0515 36.0294 24.9375 36.3C24.2388 36.0388 23.4688 36.0413 22.7716 36.3068C20.8858 36.1435 19.0623 35.5519 17.4398 34.5771C15.8173 33.6024 14.4388 32.2701 13.4091 30.6818H15.9091C16.5118 30.6818 17.0899 30.4424 17.5162 30.0161C17.9424 29.5899 18.1818 29.0118 18.1818 28.4091V27.2727C18.1818 26.67 17.9424 26.0919 17.5162 25.6656C17.0899 25.2394 16.5118 25 15.9091 25H2.27273C1.66997 25 1.09189 25.2394 0.665671 25.6656C0.239443 26.0919 0 26.67 0 27.2727V28.4091C0 29.0118 0.239443 29.5899 0.665671 30.0161C1.09189 30.4424 1.66997 30.6818 2.27273 30.6818H5.80796C6.8502 33.4192 8.49785 35.8855 10.6276 37.8965C12.7573 39.9074 15.3141 41.4108 18.1068 42.2943L17.5512 43.1818H10.2273C9.02172 43.1818 7.8656 43.6607 7.01316 44.5132C6.16072 45.3656 5.68183 46.5217 5.68183 47.7273C5.68183 48.33 5.92127 48.9081 6.3475 49.3343C6.77371 49.7606 7.35179 50 7.95456 50H39.7728C40.3755 50 40.9536 49.7606 41.3798 49.3343C41.8061 48.9081 42.0455 48.33 42.0455 47.7273C42.0455 46.5217 41.5666 45.3656 40.7141 44.5132C39.8618 43.6607 38.7056 43.1818 37.5 43.1818H30.1762L29.6171 42.2886C33.5365 41.0474 36.9612 38.595 39.3987 35.2842C41.8362 31.9734 43.1607 27.9749 43.1819 23.8636C43.1889 19.937 41.9849 16.1038 39.7341 12.8863C39.7341 12.8522 39.7421 12.8193 39.7444 12.7852L43.7966 10.4545C44.4063 10.1037 44.8913 9.57131 45.184 8.93168C45.4768 8.29207 45.5626 7.57704 45.4296 6.88632L46.591 6.21018C47.1121 5.90771 47.4922 5.41112 47.6481 4.82907C47.804 4.24704 47.723 3.62694 47.4228 3.10449ZM23.5409 20.8295L18.9955 12.9568L19.9796 12.3886L24.525 20.2613L23.5409 20.8295ZM35.2273 14.7727C34.7778 14.7727 34.3385 14.6394 33.9647 14.3896C33.591 14.14 33.2996 13.785 33.1275 13.3697C32.9556 12.9544 32.9106 12.4974 32.9982 12.0565C33.086 11.6157 33.3024 11.2107 33.6203 10.8929C33.9381 10.5751 34.3431 10.3586 34.7839 10.2709C35.2248 10.1832 35.6818 10.2282 36.0971 10.4002C36.5123 10.5722 36.8673 10.8636 37.117 11.2373C37.3668 11.6111 37.5 12.0504 37.5 12.4999C37.5 13.1027 37.2606 13.6807 36.8344 14.107C36.4081 14.5332 35.83 14.7727 35.2273 14.7727ZM2.27273 27.2727H15.9091V28.4091H2.27273V27.2727ZM8.26138 30.6818H10.7739C11.7618 32.5888 13.155 34.2567 14.8558 35.5682C16.5566 36.8796 18.5238 37.8032 20.6193 38.2738L19.3568 40.2943C16.9112 39.6134 14.6472 38.3978 12.7283 36.7355C10.8096 35.0732 9.28388 33.0055 8.26138 30.6818ZM37.5 45.4545C38.1028 45.4545 38.6808 45.694 39.1071 46.1202C39.5333 46.5465 39.7728 47.1245 39.7728 47.7273H7.95456C7.95456 47.1245 8.19399 46.5465 8.62024 46.1202C9.04649 45.694 9.62456 45.4545 10.2273 45.4545H18.1818C18.3746 45.4545 18.5641 45.4056 18.7328 45.3121C18.9013 45.2186 19.0433 45.0839 19.1455 44.9204L22.8955 38.9125C22.9974 38.7481 23.1396 38.6124 23.3087 38.5183C23.4776 38.4242 23.668 38.3748 23.8614 38.3748C24.0548 38.3748 24.2451 38.4242 24.4141 38.5183C24.5832 38.6124 24.7254 38.7481 24.8273 38.9125L28.5773 44.9193C28.6797 45.0836 28.8224 45.2191 28.9919 45.3127C29.1613 45.4064 29.3519 45.4552 29.5455 45.4545H37.5ZM40.9091 23.8636C40.8886 27.5922 39.6519 31.2124 37.3868 34.1743C35.1217 37.1362 31.9521 39.2782 28.3591 40.275L27.0966 38.2557C30.3656 37.5181 33.2874 35.6926 35.3838 33.078C37.4802 30.4635 38.627 27.2149 38.6364 23.8636C38.6386 21.3741 38.002 18.9255 36.7876 16.7522C37.5143 16.4834 38.1598 16.0327 38.6626 15.4431C40.1382 18.0038 40.9131 20.9081 40.9091 23.8636ZM43.1819 7.79086C43.1444 7.93487 43.0788 8.07007 42.9889 8.18864C42.899 8.30721 42.7865 8.40683 42.658 8.48177L39.258 10.4431C38.9791 9.89404 38.5913 9.40756 38.1182 9.01332C37.6451 8.6191 37.0965 8.32545 36.5062 8.15032C35.9157 7.97517 35.2958 7.92219 34.6842 7.99462C34.0728 8.06706 33.4823 8.26337 32.9491 8.57159C32.4161 8.87981 31.9513 9.29347 31.5833 9.78733C31.2154 10.2811 30.952 10.8447 30.8091 11.4438C30.6662 12.0428 30.647 12.6647 30.7525 13.2714C30.858 13.8781 31.0861 14.457 31.4228 14.9727L25.925 18.1431L22.5159 12.234L39.2535 2.57495C39.5136 2.42576 39.822 2.38542 40.1118 2.46268C40.4014 2.53995 40.6488 2.72857 40.8001 2.98745L43.0728 6.93404C43.1468 7.06253 43.1945 7.20443 43.2132 7.35151C43.232 7.49859 43.2213 7.64793 43.1819 7.79086ZM44.4694 4.80904L43.333 2.83972L44.3182 2.27267L45.4546 4.24086L44.4694 4.80904Z" fill="#2F80ED"/>
<path d="M23.8629 43.1817C24.4905 43.1817 24.9993 42.6729 24.9993 42.0453C24.9993 41.4177 24.4905 40.9089 23.8629 40.9089C23.2353 40.9089 22.7266 41.4177 22.7266 42.0453C22.7266 42.6729 23.2353 43.1817 23.8629 43.1817Z" fill="#2F80ED"/>
</svg>
