<svg width="44" height="50" viewBox="0 0 44 50" fill="none" xmlns="http://www.w3.org/2000/svg">
<path d="M10.9808 40.2977L16.1383 49.999L21.8694 40.0731L27.6005 50L32.7581 40.2988L43.7378 40.6828L35.1381 25.7868L36.4259 25.2143L35.9425 20.5795L38.6765 16.8071L35.9425 13.0347L36.427 8.39993L32.1701 6.50648L30.2766 2.24958L25.6418 2.73303L21.8694 0L18.097 2.73407L13.4623 2.24958L11.5688 6.50648L7.3119 8.39993L7.79535 13.0347L5.06232 16.8071L7.79639 20.5795L7.3119 25.2143L8.60077 25.7878L0 40.6818L10.9808 40.2977ZM33.2364 26.6336L40.0772 38.483L31.5365 38.1838L27.5249 45.7296L23.0641 38.0026L27.0881 31.0323L28.0767 31.1359L30.2756 31.3657L32.169 27.1077L33.2364 26.6336ZM9.52731 23.9327L9.93726 20.006L7.61936 16.8071L9.93726 13.6082L9.52731 9.68156L13.1372 8.07487L14.7439 4.46499L18.6705 4.87494L21.8694 2.55704L25.0683 4.87494L28.995 4.46499L30.6017 8.07487L34.2116 9.68156L33.8016 13.6082L36.1195 16.8071L33.8016 20.006L34.2116 23.9327L34.0977 23.9834L30.6017 25.5394L28.995 29.1492L25.0683 28.7393L21.8694 31.0572L18.6705 28.7393L14.7439 29.1492L13.1372 25.5394L9.64118 23.9834L9.52731 23.9327ZM13.4623 31.3647L18.097 30.8812L21.8694 33.6142L24.1708 31.9465L20.6748 38.0026L16.2139 45.7296L12.2024 38.1838L3.66268 38.483L10.5035 26.6336L11.5698 27.1077L13.4623 31.3647Z" fill="#2F80ED"/>
</svg>
