<svg width="231" height="70" viewBox="0 0 231 70" fill="none" xmlns="http://www.w3.org/2000/svg">
<path fill-rule="evenodd" clip-rule="evenodd" d="M46.5393 60.1188C46.5393 62.8336 45.5576 65.0192 43.594 66.6753C41.7501 68.2459 39.4536 69.0314 36.7048 69.0314H26.5629V68.3143C27.5532 68.2802 28.2072 68.1856 28.5093 68.007C28.9577 67.7422 29.1752 67.1534 29.1752 66.2655L29.1752 55.4999L32.4022 56.4999L32.4022 65.702C32.4022 66.8794 32.5833 67.6401 32.9656 67.9557C33.2657 68.2031 33.9986 68.3143 35.1425 68.3143C37.0035 68.3143 38.5231 67.896 39.7012 67.0594C40.8792 66.2228 41.716 65.224 42.2111 64.0629C42.6379 63.0385 42.8513 61.7494 42.8513 60.1958C42.8513 58.181 42.4331 56.4566 41.5965 55.0224C40.6573 53.4004 39.2658 52.376 37.4219 51.949C36.6534 51.7613 35.7658 51.6673 34.7584 51.6673C33.751 51.6673 33.0863 51.9162 32.7607 52.4101C32.5237 52.7691 32.4022 53.4523 32.4022 54.4589L32.4022 56.4999L29.1752 55.4999L29.1752 53.3577C29.1752 52.6917 28.8861 52.2268 28.3043 51.9746C27.982 51.8348 27.3994 51.7356 26.5629 51.6673V50.9502H37.1402C39.8377 50.9502 42.0788 51.8038 43.8631 53.5113C45.6473 55.2186 46.5393 57.4213 46.5393 60.1188ZM76.3268 67.7508C76.3268 68.1949 76.1733 68.579 75.8659 68.9033C75.5586 69.2277 75.1829 69.3901 74.7391 69.3901C74.295 69.3901 73.9195 69.2277 73.6122 68.9033C73.3049 68.579 73.1511 68.1949 73.1511 67.7508C73.1511 67.3069 73.3049 66.9228 73.6122 66.5985C73.9195 66.2739 74.295 66.1118 74.7391 66.1118C75.1829 66.1118 75.5586 66.2739 75.8659 66.5985C76.1733 66.9228 76.3268 67.3069 76.3268 67.7508ZM94.294 63.5507C94.294 65.1557 93.7262 66.5215 92.5909 67.6484C91.4555 68.7753 90.0852 69.3388 88.4803 69.3388C87.934 69.3388 87.1357 69.1595 86.0858 68.8009C85.0358 68.4424 84.2374 68.263 83.6912 68.263C83.0082 68.263 82.4619 68.5193 82.0521 69.0314H81.335V62.5263H82.1545C82.7522 64.6092 83.6399 66.146 84.818 67.1361C85.996 68.1265 87.2169 68.6217 88.4803 68.6217C89.5389 68.6217 90.4481 68.2929 91.2079 67.6357C91.9677 66.9784 92.3476 66.1288 92.3476 65.0873C92.3476 64.0288 92.083 63.2434 91.5537 62.7312C90.6829 61.8776 89.1719 61.314 87.0207 61.0408C84.5791 60.7335 82.9143 59.9652 82.0264 58.7359C81.4289 57.9164 81.1301 56.9517 81.1301 55.8419C81.1301 54.3734 81.6081 53.1357 82.5644 52.1284C83.5204 51.121 84.724 50.6172 86.1755 50.6172C86.6022 50.6172 87.2382 50.6984 88.0834 50.8606C88.9286 51.0228 89.5646 51.1039 89.9914 51.1039C90.4353 51.1039 90.8621 50.9929 91.2719 50.7709H92.2452L92.8087 56.0212H91.9122C91.417 54.6297 90.6915 53.4984 89.7352 52.632C88.6767 51.6801 87.4474 51.2064 86.0473 51.2064C85.1254 51.2064 84.3143 51.5265 83.6144 52.1667C82.9143 52.807 82.5644 53.5796 82.5644 54.4845C82.5644 55.3894 82.9143 56.0723 83.6144 56.5334C84.6558 57.2164 86.4315 57.7286 88.9414 58.07C89.8804 58.2065 90.6401 58.4116 91.2207 58.6846C93.2695 59.692 94.294 61.314 94.294 63.5507ZM69.2443 69.0314H66.8412C65.9918 69.0314 65.138 68.6814 64.2844 67.9813C63.7764 67.5546 63.1361 66.8545 62.3679 65.8814L60.5795 63.602C60.1868 63.0726 59.5763 62.3214 58.7397 61.3481C58.33 60.9383 57.9713 60.7335 57.664 60.7335H56.2597V66.1631C56.2597 67.0337 56.5243 67.6313 57.0536 67.9557C57.4805 68.2119 58.1549 68.3314 59.0769 68.3143V69.0314H50.1643V68.3143C51.0522 68.263 51.5985 68.2119 51.8034 68.1606C52.4523 68.024 52.8448 67.7167 52.9816 67.2386C53.0497 66.9997 53.084 66.6239 53.084 66.1118V54.1259C53.084 53.5455 53.0583 53.1357 53.0072 52.8966C52.9048 52.3673 52.5205 52.0173 51.8547 51.8465C51.5985 51.7783 51.0352 51.7186 50.1643 51.6673V50.9502H60.2806C61.8515 50.9502 63.2344 51.3343 64.4295 52.1027C65.8126 52.9906 66.504 54.1772 66.504 55.6625C66.504 56.9772 66.0003 58.0871 64.9929 58.992C64.1052 59.7944 62.9783 60.3067 61.6123 60.5286C62.0904 61.0067 63.4478 62.6201 65.6845 65.369C66.3503 66.1888 66.8711 66.7691 67.2468 67.1107C67.8955 67.7081 68.5615 68.1095 69.2443 68.3143V69.0314ZM62.9697 55.8419C62.9697 53.0588 61.5056 51.6673 58.5817 51.6673C57.6299 51.6673 57.0025 51.8552 56.708 52.2308C56.4091 52.6063 56.2597 53.2893 56.2597 54.2796V60.0421H58.3256C61.4203 60.0421 62.9697 58.642 62.9697 55.8419ZM118.945 69.0314H110.392V68.3143C111.348 68.3143 112.035 68.2033 112.453 67.9813C112.872 67.7594 113.081 67.1959 113.081 66.2912V60.1958H103.938V66.3936C103.938 67.1959 104.202 67.7338 104.732 68.007C105.09 68.2119 105.713 68.3143 106.601 68.3143V69.0314H98.0729V68.3143C99.0119 68.3143 99.6949 68.2033 100.122 67.9813C100.549 67.7594 100.762 67.1959 100.762 66.2912V53.6906C100.762 52.8028 100.514 52.2222 100.019 51.949C99.6949 51.7613 99.046 51.6673 98.0729 51.6673V50.9502H106.601V51.6673C105.765 51.6673 105.15 51.7697 104.757 51.9746C104.211 52.2649 103.938 52.8028 103.938 53.5882V59.2481H113.081V53.665C113.081 52.8454 112.808 52.2819 112.261 51.9746C111.885 51.7697 111.262 51.6673 110.392 51.6673V50.9502H118.945V51.6673C118.024 51.6673 117.383 51.7613 117.025 51.949C116.513 52.2222 116.256 52.7685 116.256 53.5882V66.3936C116.256 67.2302 116.513 67.7765 117.025 68.0327C117.366 68.2205 118.006 68.3143 118.945 68.3143V69.0314ZM142.214 51.6673C141.07 51.6673 140.302 52.2735 139.909 53.4858C139.67 54.1856 139.551 55.27 139.551 56.7382V63.3458C139.551 65.3606 138.808 66.9058 137.322 67.9813C136.008 68.9204 134.3 69.3901 132.2 69.3901C129.434 69.3901 127.402 68.6131 126.105 67.0594C125.388 66.2058 125.029 65.0276 125.029 63.525V53.7674C125.029 52.8112 124.765 52.2138 124.235 51.9746C124.031 51.8721 123.348 51.7697 122.187 51.6673V50.9502H130.843V51.6673C129.853 51.7356 129.229 51.8381 128.973 51.9746C128.495 52.2308 128.256 52.7857 128.256 53.6436V63.8239C128.256 65.3137 128.751 66.4575 129.742 67.2643C130.647 67.9813 131.867 68.34 133.404 68.34C135.094 68.34 136.426 67.8747 137.399 66.9399C138.373 66.0093 138.859 64.699 138.859 63.0044V56.6956C138.859 55.4278 138.799 54.5144 138.68 53.9509C138.441 52.8198 137.937 52.1284 137.169 51.8721C136.776 51.7356 136.264 51.6673 135.632 51.6673V50.9502H142.214V51.6673ZM168.044 69.0314H159.797V68.3143C161.487 68.3143 162.333 67.5886 162.333 66.1374V53.2553L155.956 69.0314H155.187L148.913 53.7418V64.447C148.913 65.5398 149.117 66.4191 149.527 67.085C150.022 67.9046 150.782 68.3143 151.807 68.3143V69.0314H145.353V68.3143C147.214 68.3143 148.144 67.0423 148.144 64.4984V52.7685C147.512 52.0343 146.582 51.6673 145.353 51.6673V50.9502H151.2L156.903 64.6435L162.52 50.9502H168.044V51.6673C167.241 51.6673 166.652 51.7783 166.277 52.0003C165.765 52.2905 165.508 52.8198 165.508 53.5882V66.4191C165.508 67.1875 165.765 67.7167 166.277 68.007C166.652 68.2119 167.241 68.3143 168.044 68.3143V69.0314ZM189.622 69.0314H182.016V68.3143C183.33 68.3143 183.988 67.9557 183.988 67.2386C183.988 66.9441 183.872 66.4916 183.642 65.877L182.212 62.219H176.13L175.28 64.3959C175.058 64.9592 174.947 65.5314 174.947 66.1118C174.947 66.7434 175.139 67.2684 175.523 67.6869C175.908 68.1053 176.407 68.3143 177.022 68.3143V69.0314H171.08V68.3143C171.763 68.3143 172.429 67.9046 173.078 67.085C173.556 66.4704 173.957 65.7447 174.281 64.9081L178.712 53.5625C178.302 52.7857 177.568 52.3972 176.509 52.3972V51.8552L181.119 50.7709L187.036 65.9068C187.667 67.5119 188.529 68.3143 189.622 68.3143V69.0314ZM181.892 61.3994L179.13 54.4675L176.42 61.3994H181.892ZM209.536 64.3959L208.102 69.0314H192.351V68.3143C193.444 68.3143 194.186 68.1949 194.579 67.9557C194.972 67.7167 195.168 67.1534 195.168 66.2655V53.921C195.168 52.9136 194.938 52.2649 194.476 51.9746C194.152 51.7697 193.444 51.6673 192.351 51.6673V50.9502H207.461L209.024 55.0478H208.097C207.261 54.0064 206.215 53.1827 204.968 52.5764C203.718 51.9704 202.424 51.6673 201.093 51.6673C200.166 51.6673 199.526 51.7613 199.163 51.949C198.617 52.2222 198.344 52.7685 198.344 53.5882V59.376H201.097C203.291 59.376 204.388 58.3432 204.388 56.2774H205.259V63.0898H204.388C204.388 61.0921 203.308 60.0933 201.148 60.0933H198.344V66.3936C198.344 66.7861 198.386 67.1021 198.472 67.341C198.642 67.8021 199.138 68.1009 199.962 68.2376C200.303 68.2887 200.935 68.3143 201.861 68.3143C203.248 68.3143 204.495 67.9302 205.609 67.1618C206.326 66.6667 207.278 65.7447 208.456 64.3959H209.536ZM230.448 51.6673C229.167 51.7356 227.964 53.1955 226.837 56.0468L221.535 69.3901H220.818L214.313 53.8185C213.921 52.8795 213.665 52.3417 213.545 52.2052C213.255 51.8808 212.691 51.7013 211.855 51.6673V50.9502H219.538V51.6673C218.223 51.6673 217.566 52.0003 217.566 52.6661C217.566 53.1271 217.651 53.5625 217.818 53.9723L222.483 65.1343L225.838 56.6871C226.316 55.4749 226.555 54.5272 226.555 53.8442C226.555 52.393 225.881 51.6673 224.532 51.6673V50.9502H230.448V51.6673Z" fill="#1B1918"/>
<path fill-rule="evenodd" clip-rule="evenodd" d="M27.7373 45.1382H29.268C30.0797 45.1382 30.6592 45.0099 31.0064 44.7531C31.3488 44.5095 31.5201 44.093 31.5201 43.4988C31.5201 42.9719 31.3785 42.5769 31.0953 42.3135C30.8039 42.0435 30.3859 41.9086 29.8426 41.9086H27.7373V45.1382ZM26.552 46.0964V41H29.8311C30.7678 41 31.4887 41.2172 31.994 41.6534C32.4945 42.0931 32.7448 42.7152 32.7448 43.5184C32.7448 43.9893 32.6459 44.4173 32.4485 44.8024C32.2526 45.1843 31.9759 45.484 31.6188 45.7013C31.3949 45.8394 31.1216 45.9384 30.799 45.9976C30.4829 46.0634 30.0583 46.0964 29.525 46.0964H26.552ZM38.1351 46.0964V41.9185H39.1426V46.0964H38.1351ZM48.9776 42.679H45.7972V45.2963H48.9776V44.4074H47.3183V43.6667H49.975V45.1087C49.975 45.4873 49.8994 45.7474 49.7479 45.889C49.5966 46.0272 49.31 46.0964 48.8869 46.0964H45.8647C45.4401 46.0964 45.1552 46.0272 45.0071 45.889C44.8556 45.7506 44.78 45.4905 44.78 45.1087V42.9061C44.78 42.5275 44.8556 42.2674 45.0071 42.1258C45.1552 41.9877 45.4401 41.9185 45.8647 41.9185H48.8869C49.31 41.9185 49.5966 41.9877 49.7479 42.1258C49.8994 42.2592 49.975 42.5029 49.975 42.8584V42.9671L48.9776 43.1333V42.679ZM55.7984 46.0964V41.9185H56.8059V46.0964H55.7984ZM64.5667 42.6691V46.0964H63.5495V42.6691H61.5345V41.9185H66.5914V42.6691H64.5667ZM70.4328 46.0964L72.9118 41.9185H73.8879L76.4082 46.0964H75.2626L74.7391 45.1778H71.9735L71.45 46.0964H70.4328ZM72.4081 44.4173H74.3242L73.3463 42.679L72.4081 44.4173ZM82.0948 46.0964V41.9185H83.1221V45.316H86.3993V46.0964H82.0948ZM112.987 41.8888H109.648V42.9853H112.829C113.324 42.9853 113.663 43.0708 113.848 43.2402C114.017 43.4148 114.103 43.7309 114.103 44.1885V44.8897C114.103 45.3507 114.017 45.6667 113.848 45.8412C113.663 46.0107 113.324 46.0964 112.829 46.0964H109.678C109.179 46.0964 108.843 46.0107 108.669 45.8412C108.493 45.6716 108.404 45.3556 108.404 44.8897V44.7531L109.451 44.5358V45.1382H113.056V43.9729H109.876C109.383 43.9729 109.051 43.8871 108.876 43.7178C108.7 43.5482 108.611 43.232 108.611 42.7696V42.2049C108.611 41.7424 108.7 41.4263 108.876 41.2584C109.049 41.0856 109.382 41 109.876 41H112.77C113.25 41 113.583 41.0823 113.767 41.2485C113.945 41.4131 114.034 41.7028 114.034 42.1161V42.223L112.987 42.4715V41.8888ZM119.947 46.0964V41.9185H120.757L122.812 44.396L124.846 41.9185H125.666V46.0964H124.718V43.2221L122.853 45.5927H122.654L120.757 43.2913V46.0964H119.947ZM131.502 46.0964V41.9185H132.51V46.0964H131.502ZM138.355 46.0964V41.9185H139.382V45.316H142.659V46.0964H138.355ZM147.785 46.0964V41.9185H152.269V42.6592H148.812V43.568H150.827V44.2889H148.812V45.316H152.32V46.0964H147.785ZM176.166 45.1382H177.697C178.509 45.1382 179.088 45.0099 179.435 44.7531C179.778 44.5095 179.949 44.093 179.949 43.4988C179.949 42.9719 179.808 42.5769 179.524 42.3135C179.233 42.0435 178.815 41.9086 178.272 41.9086H176.166V45.1382ZM174.981 46.0964V41H178.26C179.197 41 179.918 41.2172 180.423 41.6534C180.924 42.0931 181.174 42.7152 181.174 43.5184C181.174 43.9893 181.075 44.4173 180.878 44.8024C180.682 45.1843 180.405 45.484 180.048 45.7013C179.824 45.8394 179.551 45.9384 179.228 45.9976C178.912 46.0634 178.487 46.0964 177.954 46.0964H174.981ZM186.564 46.0964V41.9185H191.048V42.6592H187.591V43.568H189.606V44.2889H187.591V45.316H191.099V46.0964H186.564ZM200.289 42.6691H197.415V43.5482H200.129C200.559 43.5482 200.849 43.6173 201 43.7555C201.145 43.8938 201.217 44.1539 201.217 44.5358V45.1087C201.217 45.4873 201.141 45.7474 200.99 45.889C200.84 46.0272 200.552 46.0964 200.129 46.0964H197.425C196.987 46.0964 196.695 46.0272 196.547 45.889C196.394 45.749 196.318 45.4888 196.318 45.1087V44.9902L197.227 44.824V45.316H200.299V44.3581H197.592C197.165 44.3581 196.873 44.2889 196.723 44.1506C196.572 44.0091 196.496 43.749 196.496 43.3721V42.9061C196.496 42.5407 196.572 42.279 196.723 42.1258C196.873 41.9877 197.165 41.9185 197.592 41.9185H200.072C200.488 41.9185 200.778 41.9843 200.941 42.1161C201.091 42.2575 201.166 42.4946 201.166 42.8271V42.926L200.289 43.1135V42.6691ZM207.074 46.0964V41.9185H208.081V46.0964H207.074ZM217.916 42.679H214.736V45.2963H217.916V44.4074H216.257V43.6667H218.913V45.1087C218.913 45.4873 218.838 45.7474 218.686 45.889C218.535 46.0272 218.248 46.0964 217.825 46.0964H214.803C214.378 46.0964 214.094 46.0272 213.946 45.889C213.794 45.7506 213.718 45.4905 213.718 45.1087V42.9061C213.718 42.5275 213.794 42.2674 213.946 42.1258C214.094 41.9877 214.378 41.9185 214.803 41.9185H217.825C218.248 41.9185 218.535 41.9877 218.686 42.1258C218.838 42.2592 218.913 42.5029 218.913 42.8584V42.9671L217.916 43.1333V42.679ZM224.737 46.0964V41.9185H225.436L228.984 44.6923V41.9185H229.902V46.0964H229.201L225.665 43.2831V46.0964H224.737Z" fill="#E30016"/>
<path fill-rule="evenodd" clip-rule="evenodd" d="M70.7612 14.8853L71.7776 15.9596C74.9545 19.0954 73.8279 23.5879 74.0039 25.4579C75.4931 21.3956 75.1678 15.5307 70.7612 14.8853Z" fill="#E30016"/>
<path fill-rule="evenodd" clip-rule="evenodd" d="M69.2077 24.6262C67.6548 28.3421 63.0247 33.503 61.7323 35.8841C67.9378 31.5649 72.2708 22.8278 72.5773 19.6078C68.4473 25.1655 59.994 29.0267 54.4381 30.7135C39.4229 35.2723 19.9956 32.1822 9.84834 19.4059C5.2069 13.5619 3.42019 8.4165 2.14562 0C0.937115 40.3685 46.5483 48.9348 69.2077 24.6262Z" fill="#E30016"/>
<path fill-rule="evenodd" clip-rule="evenodd" d="M35.2549 56.4844C9.94176 50.3087 0.941934 26.6731 1.4624 5.18896C-3.59295 31.682 13.0574 57.0858 35.2549 56.4844Z" fill="#E30016"/>
</svg>
