<svg width="204" height="30" viewBox="0 0 204 30" fill="none" xmlns="http://www.w3.org/2000/svg">
<path fill-rule="evenodd" clip-rule="evenodd" d="M19.9873 20.4235C19.9873 23.1383 19.0056 25.3239 17.042 26.98C15.1981 28.5506 12.9016 29.3361 10.1528 29.3361H0.0108643V28.619C1.0012 28.5849 1.65516 28.4903 1.95725 28.3117C2.4057 28.0469 2.6232 27.4581 2.6232 26.5702L2.6232 15.8046L5.85022 16.8046L5.85022 26.0067C5.85022 27.184 6.03127 27.9448 6.41356 28.2604C6.71367 28.5077 7.44657 28.619 8.59048 28.619C10.4515 28.619 11.9711 28.2006 13.1492 27.3641C14.3272 26.5275 15.164 25.5287 15.6591 24.3676C16.0859 23.3432 16.2993 22.0541 16.2993 20.5005C16.2993 18.4857 15.8811 16.7613 15.0445 15.3271C14.1053 13.7051 12.7138 12.6807 10.8699 12.2537C10.1014 12.066 9.21377 11.972 8.20638 11.972C7.19899 11.972 6.53425 12.2209 6.20866 12.7147C5.97169 13.0738 5.85022 13.757 5.85022 14.7636L5.85022 16.8046L2.6232 15.8046L2.6232 13.6624C2.6232 12.9964 2.33413 12.5315 1.75235 12.2793C1.43001 12.1395 0.847443 12.0403 0.0108643 11.972V11.2549H10.5882C13.2857 11.2549 15.5268 12.1085 17.3111 13.8159C19.0953 15.5233 19.9873 17.726 19.9873 20.4235ZM49.7748 28.0555C49.7748 28.4995 49.6213 28.8836 49.3139 29.208C49.0066 29.5324 48.6309 29.6948 48.1871 29.6948C47.743 29.6948 47.3675 29.5324 47.0602 29.208C46.7529 28.8836 46.5991 28.4995 46.5991 28.0555C46.5991 27.6116 46.7529 27.2275 47.0602 26.9032C47.3675 26.5786 47.743 26.4164 48.1871 26.4164C48.6309 26.4164 49.0066 26.5786 49.3139 26.9032C49.6213 27.2275 49.7748 27.6116 49.7748 28.0555ZM67.742 23.8554C67.742 25.4604 67.1742 26.8262 66.0389 27.9531C64.9035 29.0799 63.5332 29.6435 61.9283 29.6435C61.382 29.6435 60.5837 29.4642 59.5338 29.1056C58.4838 28.7471 57.6854 28.5677 57.1392 28.5677C56.4562 28.5677 55.9099 28.8239 55.5001 29.3361H54.783V22.831H55.6025C56.2001 24.9139 57.0879 26.4507 58.266 27.4408C59.444 28.4312 60.6649 28.9264 61.9283 28.9264C62.9869 28.9264 63.8961 28.5976 64.6559 27.9404C65.4157 27.2831 65.7956 26.4335 65.7956 25.392C65.7956 24.3335 65.531 23.5481 65.0017 23.0358C64.1309 22.1823 62.6199 21.6187 60.4687 21.3455C58.0271 21.0382 56.3623 20.2699 55.4744 19.0406C54.8769 18.2211 54.5781 17.2564 54.5781 16.1466C54.5781 14.6781 55.0561 13.4404 56.0124 12.4331C56.9684 11.4257 58.172 10.9219 59.6235 10.9219C60.0502 10.9219 60.6862 11.0031 61.5314 11.1653C62.3766 11.3275 63.0126 11.4086 63.4394 11.4086C63.8833 11.4086 64.3101 11.2976 64.7199 11.0756H65.6932L66.2567 16.3259H65.3602C64.865 14.9344 64.1395 13.8031 63.1832 12.9366C62.1247 11.9848 60.8954 11.5111 59.4953 11.5111C58.5734 11.5111 57.7623 11.8312 57.0624 12.4713C56.3623 13.1117 56.0124 13.8843 56.0124 14.7892C56.0124 15.6941 56.3623 16.377 57.0624 16.8381C58.1038 17.5211 59.8795 18.0332 62.3894 18.3747C63.3284 18.5112 64.0881 18.7163 64.6687 18.9893C66.7175 19.9967 67.742 21.6187 67.742 23.8554ZM42.6923 29.3361H40.2892C39.4398 29.3361 38.586 28.9861 37.7324 28.286C37.2244 27.8593 36.5841 27.1592 35.8159 26.1861L34.0275 23.9067C33.6348 23.3773 33.0243 22.6261 32.1877 21.6528C31.778 21.243 31.4193 21.0382 31.112 21.0382H29.7077V26.4678C29.7077 27.3384 29.9723 27.936 30.5016 28.2604C30.9285 28.5166 31.6029 28.6361 32.5249 28.619V29.3361H23.6123V28.619C24.5002 28.5677 25.0465 28.5166 25.2514 28.4653C25.9003 28.3287 26.2928 28.0214 26.4296 27.5433C26.4977 27.3044 26.532 26.9286 26.532 26.4164V14.4306C26.532 13.8502 26.5063 13.4404 26.4552 13.2013C26.3528 12.672 25.9685 12.322 25.3027 12.1512C25.0465 12.083 24.4832 12.0233 23.6123 11.972V11.2549H33.7286C35.2995 11.2549 36.6824 11.639 37.8775 12.4074C39.2606 13.2953 39.952 14.4819 39.952 15.9672C39.952 17.2819 39.4483 18.3917 38.4409 19.2966C37.5532 20.0991 36.4263 20.6114 35.0603 20.8333C35.5384 21.3114 36.8958 22.9248 39.1325 25.6737C39.7983 26.4934 40.3191 27.0738 40.6948 27.4154C41.3435 28.0128 42.0095 28.4142 42.6923 28.619V29.3361ZM36.4177 16.1466C36.4177 13.3635 34.9536 11.972 32.0297 11.972C31.0779 11.972 30.4505 12.1598 30.156 12.5355C29.8571 12.911 29.7077 13.594 29.7077 14.5843V20.3467H31.7736C34.8683 20.3467 36.4177 18.9466 36.4177 16.1466ZM92.3935 29.3361H83.8395V28.619C84.7958 28.619 85.483 28.508 85.9012 28.286C86.3196 28.0641 86.5287 27.5006 86.5287 26.5959V20.5005H77.3857V26.6983C77.3857 27.5006 77.6504 28.0385 78.1796 28.3117C78.5382 28.5166 79.1613 28.619 80.0492 28.619V29.3361H71.5209V28.619C72.4599 28.619 73.1429 28.508 73.5697 28.286C73.9965 28.0641 74.2101 27.5006 74.2101 26.5959V13.9953C74.2101 13.1075 73.9624 12.5269 73.4673 12.2537C73.1429 12.066 72.494 11.972 71.5209 11.972V11.2549H80.0492V11.972C79.2127 11.972 78.598 12.0744 78.2053 12.2793C77.6587 12.5696 77.3857 13.1075 77.3857 13.8929V19.5528H86.5287V13.9697C86.5287 13.1501 86.2557 12.5866 85.7092 12.2793C85.3335 12.0744 84.7104 11.972 83.8395 11.972V11.2549H92.3935V11.972C91.4715 11.972 90.8314 12.066 90.4728 12.2537C89.9606 12.5269 89.7044 13.0732 89.7044 13.8929V26.6983C89.7044 27.5349 89.9606 28.0812 90.4728 28.3374C90.8142 28.5252 91.4545 28.619 92.3935 28.619V29.3361ZM115.662 11.972C114.518 11.972 113.75 12.5782 113.357 13.7905C113.118 14.4903 112.999 15.5747 112.999 17.0429V23.6505C112.999 25.6652 112.256 27.2105 110.77 28.286C109.456 29.2251 107.748 29.6948 105.648 29.6948C102.882 29.6948 100.85 28.9177 99.553 27.3641C98.8359 26.5104 98.4773 25.3323 98.4773 23.8297V14.0721C98.4773 13.1159 98.2127 12.5184 97.6834 12.2793C97.4785 12.1768 96.7955 12.0744 95.6345 11.972V11.2549H104.291V11.972C103.301 12.0403 102.677 12.1428 102.421 12.2793C101.943 12.5355 101.704 13.0904 101.704 13.9483V24.1286C101.704 25.6184 102.199 26.7622 103.19 27.569C104.095 28.286 105.315 28.6447 106.852 28.6447C108.542 28.6447 109.874 28.1794 110.847 27.2446C111.821 26.314 112.307 25.0037 112.307 23.3091V17.0003C112.307 15.7325 112.247 14.8191 112.128 14.2555C111.889 13.1245 111.385 12.4331 110.617 12.1768C110.224 12.0403 109.712 11.972 109.08 11.972V11.2549H115.662V11.972ZM141.492 29.3361H133.245V28.619C134.935 28.619 135.781 27.8933 135.781 26.4421V13.5599L129.404 29.3361H128.635L122.361 14.0465V24.7517C122.361 25.8445 122.565 26.7238 122.975 27.3897C123.47 28.2093 124.23 28.619 125.255 28.619V29.3361H118.801V28.619C120.662 28.619 121.592 27.347 121.592 24.8031V13.0732C120.96 12.339 120.03 11.972 118.801 11.972V11.2549H124.648L130.351 24.9482L135.968 11.2549H141.492V11.972C140.689 11.972 140.1 12.083 139.725 12.305C139.213 12.5952 138.956 13.1245 138.956 13.8929V26.7238C138.956 27.4922 139.213 28.0214 139.725 28.3117C140.1 28.5166 140.689 28.619 141.492 28.619V29.3361ZM163.07 29.3361H155.464V28.619C156.778 28.619 157.436 28.2604 157.436 27.5433C157.436 27.2488 157.32 26.7963 157.09 26.1817L155.66 22.5237H149.578L148.728 24.7006C148.506 25.2639 148.395 25.8361 148.395 26.4164C148.395 27.0481 148.587 27.5731 148.971 27.9916C149.356 28.4099 149.855 28.619 150.47 28.619V29.3361H144.528V28.619C145.211 28.619 145.877 28.2093 146.526 27.3897C147.004 26.7751 147.405 26.0494 147.729 25.2128L152.16 13.8672C151.75 13.0904 151.016 12.7019 149.957 12.7019V12.1598L154.567 11.0756L160.484 26.2115C161.115 27.8165 161.977 28.619 163.07 28.619V29.3361ZM155.34 21.7041L152.578 14.7722L149.868 21.7041H155.34ZM182.984 24.7006L181.55 29.3361H165.799V28.619C166.892 28.619 167.634 28.4995 168.027 28.2604C168.42 28.0214 168.616 27.4581 168.616 26.5702V14.2257C168.616 13.2183 168.385 12.5696 167.924 12.2793C167.6 12.0744 166.892 11.972 165.799 11.972V11.2549H180.909L182.472 15.3525H181.545C180.709 14.3111 179.663 13.4873 178.416 12.8811C177.166 12.2751 175.872 11.972 174.541 11.972C173.614 11.972 172.974 12.066 172.611 12.2537C172.065 12.5269 171.792 13.0732 171.792 13.8929V19.6807H174.545C176.739 19.6807 177.836 18.6479 177.836 16.582H178.707V23.3945H177.836C177.836 21.3968 176.756 20.398 174.596 20.398H171.792V26.6983C171.792 27.0908 171.834 27.4068 171.92 27.6457C172.09 28.1068 172.586 28.4056 173.41 28.5423C173.751 28.5934 174.383 28.619 175.309 28.619C176.696 28.619 177.943 28.2349 179.057 27.4665C179.774 26.9714 180.726 26.0494 181.904 24.7006H182.984ZM203.896 11.972C202.615 12.0403 201.412 13.5002 200.285 16.3515L194.983 29.6948H194.266L187.761 14.1232C187.368 13.1842 187.113 12.6464 186.993 12.5098C186.703 12.1855 186.139 12.006 185.303 11.972V11.2549H192.986V11.972C191.671 11.972 191.014 12.305 191.014 12.9708C191.014 13.4318 191.099 13.8672 191.266 14.277L195.931 25.4389L199.286 16.9918C199.764 15.7796 200.003 14.8319 200.003 14.1489C200.003 12.6977 199.329 11.972 197.98 11.972V11.2549H203.896V11.972Z" fill="#1B1918"/>
<path fill-rule="evenodd" clip-rule="evenodd" d="M1.18531 4.44288H2.71604C3.52767 4.44288 4.10716 4.31461 4.45438 4.05776C4.79678 3.81423 4.96808 3.39765 4.96808 2.80352C4.96808 2.27663 4.8265 1.88156 4.54332 1.61821C4.25195 1.34817 3.83386 1.21327 3.29058 1.21327H1.18531V4.44288ZM0 5.40104V0.304688H3.27914C4.21579 0.304688 4.93669 0.521893 5.44201 0.958106C5.94245 1.39775 6.19279 2.0199 6.19279 2.8231C6.19279 3.29402 6.09392 3.72198 5.89648 4.1071C5.70061 4.48903 5.42394 4.78871 5.06683 5.00598C4.84288 5.14413 4.56964 5.24307 4.247 5.30229C3.93087 5.36809 3.50629 5.40104 2.97295 5.40104H0ZM11.5831 5.40104V1.22321H12.5906V5.40104H11.5831ZM22.4256 1.98369H19.2452V4.60103H22.4256V3.7121H20.7663V2.97138H23.423V4.41336C23.423 4.79197 23.3474 5.05207 23.1959 5.19366C23.0446 5.33188 22.758 5.40104 22.3349 5.40104H19.3127C18.8881 5.40104 18.6032 5.33188 18.4551 5.19366C18.3036 5.05533 18.228 4.79522 18.228 4.41336V2.21083C18.228 1.83222 18.3036 1.57212 18.4551 1.43053C18.6032 1.29238 18.8881 1.22321 19.3127 1.22321H22.3349C22.758 1.22321 23.0446 1.29238 23.1959 1.43053C23.3474 1.56393 23.423 1.80763 23.423 2.16305V2.27181L22.4256 2.43798V1.98369ZM29.2464 5.40104V1.22321H30.2539V5.40104H29.2464ZM38.0147 1.97381V5.40104H36.9975V1.97381H34.9825V1.22321H40.0394V1.97381H38.0147ZM43.8808 5.40104L46.3598 1.22321H47.3359L49.8562 5.40104H48.7106L48.187 4.48252H45.4215L44.898 5.40104H43.8808ZM45.8561 3.72198H47.7722L46.7943 1.98369L45.8561 3.72198ZM55.5428 5.40104V1.22321H56.5701V4.62068H59.8473V5.40104H55.5428ZM86.4348 1.19344H83.0963V2.28994H86.2768C86.7722 2.28994 87.1112 2.3755 87.2957 2.54492C87.4653 2.71947 87.5508 3.03561 87.5508 3.49315V4.1944C87.5508 4.65538 87.4653 4.97134 87.2957 5.14588C87.1112 5.31543 86.7722 5.40104 86.2768 5.40104H83.126C82.6273 5.40104 82.2914 5.31543 82.117 5.14588C81.9408 4.97628 81.852 4.66032 81.852 4.1944V4.05776L82.8989 3.84049V4.44288H86.5039V3.27757H83.3237C82.8314 3.27757 82.4989 3.19183 82.3243 3.02247C82.1483 2.85287 82.0593 2.53673 82.0593 2.07424V1.50958C82.0593 1.0471 82.1483 0.730966 82.3243 0.563108C82.4972 0.390249 82.8297 0.304688 83.3237 0.304688H86.2175C86.6981 0.304688 87.0306 0.386989 87.2151 0.55316C87.3929 0.717825 87.4817 1.00745 87.4817 1.42077V1.52772L86.4348 1.77619V1.19344ZM93.3954 5.40104V1.22321H94.2053L96.2597 3.70065L98.2944 1.22321H99.1141V5.40104H98.1659V2.52679L96.3009 4.89735H96.1017L94.2053 2.59596V5.40104H93.3954ZM104.95 5.40104V1.22321H105.958V5.40104H104.95ZM111.803 5.40104V1.22321H112.83V4.62068H116.107V5.40104H111.803ZM121.233 5.40104V1.22321H125.717V1.96387H122.26V2.87269H124.275V3.59359H122.26V4.62068H125.768V5.40104H121.233ZM149.614 4.44288H151.145C151.957 4.44288 152.536 4.31461 152.883 4.05776C153.226 3.81423 153.397 3.39765 153.397 2.80352C153.397 2.27663 153.256 1.88156 152.972 1.61821C152.681 1.34817 152.263 1.21327 151.72 1.21327H149.614V4.44288ZM148.429 5.40104V0.304688H151.708C152.645 0.304688 153.366 0.521893 153.871 0.958106C154.372 1.39775 154.622 2.0199 154.622 2.8231C154.622 3.29402 154.523 3.72198 154.326 4.1071C154.13 4.48903 153.853 4.78871 153.496 5.00598C153.272 5.14413 152.999 5.24307 152.676 5.30229C152.36 5.36809 151.935 5.40104 151.402 5.40104H148.429ZM160.012 5.40104V1.22321H164.496V1.96387H161.039V2.87269H163.054V3.59359H161.039V4.62068H164.547V5.40104H160.012ZM173.737 1.97381H170.863V2.85287H173.577C174.007 2.85287 174.297 2.92204 174.448 3.06019C174.593 3.19853 174.665 3.45862 174.665 3.84049V4.41336C174.665 4.79197 174.589 5.05207 174.438 5.19366C174.288 5.33188 174 5.40104 173.577 5.40104H170.873C170.435 5.40104 170.143 5.33188 169.995 5.19366C169.842 5.05364 169.766 4.79354 169.766 4.41336V4.29484L170.675 4.12867V4.62068H173.747V3.66275H171.04C170.613 3.66275 170.321 3.59359 170.171 3.45525C170.02 3.31379 169.944 3.05368 169.944 2.67675V2.21083C169.944 1.84535 170.02 1.58369 170.171 1.43053C170.321 1.29238 170.613 1.22321 171.04 1.22321H173.52C173.936 1.22321 174.226 1.28894 174.389 1.42077C174.539 1.56218 174.614 1.79926 174.614 2.13179V2.23066L173.737 2.41822V1.97381ZM180.521 5.40104V1.22321H181.529V5.40104H180.521ZM191.364 1.98369H188.184V4.60103H191.364V3.7121H189.705V2.97138H192.361V4.41336C192.361 4.79197 192.286 5.05207 192.134 5.19366C191.983 5.33188 191.696 5.40104 191.273 5.40104H188.251C187.826 5.40104 187.542 5.33188 187.394 5.19366C187.242 5.05533 187.166 4.79522 187.166 4.41336V2.21083C187.166 1.83222 187.242 1.57212 187.394 1.43053C187.542 1.29238 187.826 1.22321 188.251 1.22321H191.273C191.696 1.22321 191.983 1.29238 192.134 1.43053C192.286 1.56393 192.361 1.80763 192.361 2.16305V2.27181L191.364 2.43798V1.98369ZM198.185 5.40104V1.22321H198.884L202.432 3.99696V1.22321H203.35V5.40104H202.649L199.113 2.58776V5.40104H198.185Z" fill="#E30016"/>
</svg>
