<svg width="246" height="55" viewBox="0 0 246 55" fill="none" xmlns="http://www.w3.org/2000/svg">
<path d="M13.964 5.6V21H12.38V14.62C10.708 15.3387 9.08733 15.698 7.518 15.698C5.714 15.698 4.306 15.258 3.294 14.378C2.29667 13.498 1.798 12.266 1.798 10.682V5.6H3.404V10.506C3.404 11.694 3.778 12.618 4.526 13.278C5.274 13.938 6.32267 14.268 7.672 14.268C9.212 14.268 10.7813 13.9013 12.38 13.168V5.6H13.964ZM18.8138 9.428H20.3758V18.624L28.0978 9.428H29.4838V21H27.9218V11.804L20.2218 21H18.8138V9.428ZM42.1003 10.814H37.7223V21H36.1603V10.814H31.7823V9.428H42.1003V10.814ZM48.3407 9.34C49.8514 9.34 51.0101 9.72133 51.8167 10.484C52.6234 11.232 53.0267 12.3467 53.0267 13.828V21H51.5307V19.196C51.1787 19.7973 50.6581 20.2667 49.9687 20.604C49.2941 20.9413 48.4874 21.11 47.5487 21.11C46.2581 21.11 45.2314 20.802 44.4687 20.186C43.7061 19.57 43.3247 18.756 43.3247 17.744C43.3247 16.7613 43.6767 15.9693 44.3807 15.368C45.0994 14.7667 46.2361 14.466 47.7907 14.466H51.4647V13.762C51.4647 12.7647 51.1861 12.0093 50.6287 11.496C50.0714 10.968 49.2574 10.704 48.1867 10.704C47.4534 10.704 46.7494 10.8287 46.0747 11.078C45.4001 11.3127 44.8207 11.6427 44.3367 12.068L43.6327 10.902C44.2194 10.4033 44.9234 10.022 45.7447 9.758C46.5661 9.47933 47.4314 9.34 48.3407 9.34ZM47.7907 19.878C48.6707 19.878 49.4261 19.68 50.0567 19.284C50.6874 18.8733 51.1567 18.2867 51.4647 17.524V15.632H47.8347C45.8547 15.632 44.8647 16.3213 44.8647 17.7C44.8647 18.3747 45.1214 18.91 45.6347 19.306C46.1481 19.6873 46.8667 19.878 47.7907 19.878ZM65.3249 10.814H60.9469V21H59.3849V10.814H55.0069V9.428H65.3249V10.814ZM72.5553 13.52C74.0073 13.5347 75.1073 13.8573 75.8553 14.488C76.618 15.1187 76.9993 16.028 76.9993 17.216C76.9993 18.448 76.5887 19.394 75.7673 20.054C74.9607 20.714 73.7873 21.0367 72.2473 21.022L67.5833 21V9.428H69.1453V13.476L72.5553 13.52ZM72.1593 19.834C73.23 19.8487 74.0367 19.636 74.5793 19.196C75.1367 18.7413 75.4153 18.0813 75.4153 17.216C75.4153 16.3653 75.144 15.7347 74.6013 15.324C74.0587 14.9133 73.2447 14.7007 72.1593 14.686L69.1453 14.642V19.79L72.1593 19.834ZM93.1076 15.016C94.677 15.3827 95.4616 16.3287 95.4616 17.854C95.4616 18.866 95.0876 19.6433 94.3396 20.186C93.5916 20.7287 92.477 21 90.9956 21H85.7376V9.428H90.8416C92.1616 9.428 93.1956 9.68467 93.9436 10.198C94.6916 10.7113 95.0656 11.4447 95.0656 12.398C95.0656 13.0287 94.8896 13.5713 94.5376 14.026C94.2003 14.466 93.7236 14.796 93.1076 15.016ZM87.2556 14.576H90.7316C91.6263 14.576 92.3083 14.4073 92.7776 14.07C93.2616 13.7327 93.5036 13.2413 93.5036 12.596C93.5036 11.9507 93.2616 11.4667 92.7776 11.144C92.3083 10.8213 91.6263 10.66 90.7316 10.66H87.2556V14.576ZM90.9296 19.768C91.927 19.768 92.675 19.6067 93.1736 19.284C93.6723 18.9613 93.9216 18.4553 93.9216 17.766C93.9216 17.0767 93.6943 16.5707 93.2396 16.248C92.785 15.9107 92.0663 15.742 91.0836 15.742H87.2556V19.768H90.9296ZM103.962 21.11C102.818 21.11 101.792 20.8607 100.882 20.362C99.9877 19.8633 99.2837 19.1667 98.7704 18.272C98.2571 17.3627 98.0004 16.3433 98.0004 15.214C98.0004 14.0847 98.2571 13.0727 98.7704 12.178C99.2837 11.2833 99.9877 10.5867 100.882 10.088C101.792 9.58933 102.818 9.34 103.962 9.34C104.96 9.34 105.847 9.538 106.624 9.934C107.416 10.3153 108.04 10.88 108.494 11.628L107.328 12.42C106.947 11.848 106.463 11.4227 105.876 11.144C105.29 10.8507 104.652 10.704 103.962 10.704C103.126 10.704 102.371 10.8947 101.696 11.276C101.036 11.6427 100.516 12.1707 100.134 12.86C99.7677 13.5493 99.5844 14.334 99.5844 15.214C99.5844 16.1087 99.7677 16.9007 100.134 17.59C100.516 18.2647 101.036 18.7927 101.696 19.174C102.371 19.5407 103.126 19.724 103.962 19.724C104.652 19.724 105.29 19.5847 105.876 19.306C106.463 19.0273 106.947 18.602 107.328 18.03L108.494 18.822C108.04 19.57 107.416 20.142 106.624 20.538C105.832 20.9193 104.945 21.11 103.962 21.11ZM121.446 15.698H111.766C111.854 16.9007 112.316 17.876 113.152 18.624C113.988 19.3573 115.044 19.724 116.32 19.724C117.038 19.724 117.698 19.5993 118.3 19.35C118.901 19.086 119.422 18.7047 119.862 18.206L120.742 19.218C120.228 19.834 119.583 20.3033 118.806 20.626C118.043 20.9487 117.2 21.11 116.276 21.11C115.088 21.11 114.032 20.8607 113.108 20.362C112.198 19.8487 111.487 19.1447 110.974 18.25C110.46 17.3553 110.204 16.3433 110.204 15.214C110.204 14.0847 110.446 13.0727 110.93 12.178C111.428 11.2833 112.103 10.5867 112.954 10.088C113.819 9.58933 114.787 9.34 115.858 9.34C116.928 9.34 117.889 9.58933 118.74 10.088C119.59 10.5867 120.258 11.2833 120.742 12.178C121.226 13.058 121.468 14.07 121.468 15.214L121.446 15.698ZM115.858 10.682C114.743 10.682 113.804 11.0413 113.042 11.76C112.294 12.464 111.868 13.388 111.766 14.532H119.972C119.869 13.388 119.436 12.464 118.674 11.76C117.926 11.0413 116.987 10.682 115.858 10.682ZM135.457 21.11C134.342 21.11 133.338 20.8607 132.443 20.362C131.548 19.8487 130.844 19.1447 130.331 18.25C129.818 17.3553 129.561 16.3433 129.561 15.214C129.561 14.0847 129.818 13.0727 130.331 12.178C130.844 11.2833 131.548 10.5867 132.443 10.088C133.338 9.58933 134.342 9.34 135.457 9.34C136.572 9.34 137.576 9.58933 138.471 10.088C139.366 10.5867 140.062 11.2833 140.561 12.178C141.074 13.0727 141.331 14.0847 141.331 15.214C141.331 16.3433 141.074 17.3553 140.561 18.25C140.062 19.1447 139.366 19.8487 138.471 20.362C137.576 20.8607 136.572 21.11 135.457 21.11ZM135.457 19.724C136.278 19.724 137.012 19.5407 137.657 19.174C138.317 18.7927 138.83 18.2573 139.197 17.568C139.564 16.8787 139.747 16.094 139.747 15.214C139.747 14.334 139.564 13.5493 139.197 12.86C138.83 12.1707 138.317 11.6427 137.657 11.276C137.012 10.8947 136.278 10.704 135.457 10.704C134.636 10.704 133.895 10.8947 133.235 11.276C132.59 11.6427 132.076 12.1707 131.695 12.86C131.328 13.5493 131.145 14.334 131.145 15.214C131.145 16.094 131.328 16.8787 131.695 17.568C132.076 18.2573 132.59 18.7927 133.235 19.174C133.895 19.5407 134.636 19.724 135.457 19.724ZM152.38 10.814H148.002V21H146.44V10.814H142.062V9.428H152.38V10.814ZM159.948 14.972C160.769 15.1627 161.4 15.4927 161.84 15.962C162.294 16.4313 162.522 17.0033 162.522 17.678C162.522 18.3527 162.287 18.954 161.818 19.482C161.363 20.01 160.74 20.4207 159.948 20.714C159.156 20.9927 158.283 21.132 157.33 21.132C156.494 21.132 155.672 21.0147 154.866 20.78C154.059 20.5307 153.355 20.1713 152.754 19.702L153.282 18.536C153.81 18.932 154.426 19.24 155.13 19.46C155.834 19.68 156.545 19.79 157.264 19.79C158.334 19.79 159.207 19.592 159.882 19.196C160.571 18.7853 160.916 18.2353 160.916 17.546C160.916 16.93 160.637 16.4533 160.08 16.116C159.522 15.764 158.76 15.588 157.792 15.588H155.812V14.444H157.704C158.569 14.444 159.266 14.2827 159.794 13.96C160.322 13.6227 160.586 13.1753 160.586 12.618C160.586 12.002 160.285 11.518 159.684 11.166C159.097 10.814 158.327 10.638 157.374 10.638C156.127 10.638 154.895 10.9533 153.678 11.584L153.238 10.374C154.616 9.65533 156.046 9.296 157.528 9.296C158.408 9.296 159.2 9.428 159.904 9.692C160.622 9.94133 161.18 10.3007 161.576 10.77C161.986 11.2393 162.192 11.782 162.192 12.398C162.192 12.9847 161.986 13.5053 161.576 13.96C161.18 14.4147 160.637 14.752 159.948 14.972ZM170.93 13.52C172.382 13.5347 173.489 13.8573 174.252 14.488C175.014 15.1187 175.396 16.028 175.396 17.216C175.396 18.448 174.985 19.394 174.164 20.054C173.342 20.714 172.169 21.0367 170.644 21.022L166.068 21V9.428H167.63V13.476L170.93 13.52ZM177.332 9.428H178.894V21H177.332V9.428ZM170.556 19.834C171.626 19.8487 172.433 19.636 172.976 19.196C173.533 18.7413 173.812 18.0813 173.812 17.216C173.812 16.3653 173.54 15.7347 172.998 15.324C172.455 14.9133 171.641 14.7007 170.556 14.686L167.63 14.642V19.79L170.556 19.834ZM190.711 15.016C192.28 15.3827 193.065 16.3287 193.065 17.854C193.065 18.866 192.691 19.6433 191.943 20.186C191.195 20.7287 190.08 21 188.599 21H183.341V9.428H188.445C189.765 9.428 190.799 9.68467 191.547 10.198C192.295 10.7113 192.669 11.4447 192.669 12.398C192.669 13.0287 192.493 13.5713 192.141 14.026C191.804 14.466 191.327 14.796 190.711 15.016ZM184.859 14.576H188.335C189.23 14.576 189.912 14.4073 190.381 14.07C190.865 13.7327 191.107 13.2413 191.107 12.596C191.107 11.9507 190.865 11.4667 190.381 11.144C189.912 10.8213 189.23 10.66 188.335 10.66H184.859V14.576ZM188.533 19.768C189.53 19.768 190.278 19.6067 190.777 19.284C191.276 18.9613 191.525 18.4553 191.525 17.766C191.525 17.0767 191.298 16.5707 190.843 16.248C190.388 15.9107 189.67 15.742 188.687 15.742H184.859V19.768H188.533ZM201.588 13.52C203.04 13.5347 204.147 13.8573 204.91 14.488C205.673 15.1187 206.054 16.028 206.054 17.216C206.054 18.448 205.643 19.394 204.822 20.054C204.001 20.714 202.827 21.0367 201.302 21.022L196.726 21V9.428H198.288V13.476L201.588 13.52ZM207.99 9.428H209.552V21H207.99V9.428ZM201.214 19.834C202.285 19.8487 203.091 19.636 203.634 19.196C204.191 18.7413 204.47 18.0813 204.47 17.216C204.47 16.3653 204.199 15.7347 203.656 15.324C203.113 14.9133 202.299 14.7007 201.214 14.686L198.288 14.642V19.79L201.214 19.834ZM219.757 9.428H221.319V14.554H228.601V9.428H230.163V21H228.601V15.896H221.319V21H219.757V9.428ZM238.585 9.34C240.096 9.34 241.254 9.72133 242.061 10.484C242.868 11.232 243.271 12.3467 243.271 13.828V21H241.775V19.196C241.423 19.7973 240.902 20.2667 240.213 20.604C239.538 20.9413 238.732 21.11 237.793 21.11C236.502 21.11 235.476 20.802 234.713 20.186C233.95 19.57 233.569 18.756 233.569 17.744C233.569 16.7613 233.921 15.9693 234.625 15.368C235.344 14.7667 236.48 14.466 238.035 14.466H241.709V13.762C241.709 12.7647 241.43 12.0093 240.873 11.496C240.316 10.968 239.502 10.704 238.431 10.704C237.698 10.704 236.994 10.8287 236.319 11.078C235.644 11.3127 235.065 11.6427 234.581 12.068L233.877 10.902C234.464 10.4033 235.168 10.022 235.989 9.758C236.81 9.47933 237.676 9.34 238.585 9.34ZM238.035 19.878C238.915 19.878 239.67 19.68 240.301 19.284C240.932 18.8733 241.401 18.2867 241.709 17.524V15.632H238.079C236.099 15.632 235.109 16.3213 235.109 17.7C235.109 18.3747 235.366 18.91 235.879 19.306C236.392 19.6873 237.111 19.878 238.035 19.878Z" fill="#171717"/>
<g clip-path="url(#clip0_22_1658)">
<mask id="mask0_22_1658" style="mask-type:luminance" maskUnits="userSpaceOnUse" x="45" y="37" width="201" height="18">
<path d="M245.5 37H45.5V54.6923H245.5V37Z" fill="white"/>
</mask>
<g mask="url(#mask0_22_1658)">
<path fill-rule="evenodd" clip-rule="evenodd" d="M54.0538 37.1293C54.089 37.1293 54.1244 37.1293 54.1599 37.1293C54.1954 37.1293 54.2309 37.1293 54.266 37.1293C55.7373 37.1292 56.9996 37.1291 58.0092 37.2619C59.0892 37.4039 60.1166 37.7231 60.9491 38.5373C61.7815 39.3515 62.1079 40.3564 62.2531 41.4126C62.3888 42.4001 62.3888 43.6346 62.3887 45.0736V52.8632C62.3887 53.7284 61.6716 54.4297 60.7871 54.4297C59.9026 54.4297 59.1856 53.7284 59.1856 52.8632V45.1774C59.1856 43.6054 59.1821 42.5839 59.0786 41.83C58.981 41.1212 58.8222 40.8876 58.6841 40.7526C58.546 40.6175 58.3072 40.4621 57.5824 40.3668C56.8116 40.2654 55.7672 40.2621 54.1599 40.2621C52.5526 40.2621 51.5082 40.2654 50.7374 40.3668C50.0127 40.4621 49.7738 40.6175 49.6357 40.7526C49.4976 40.8876 49.3388 41.1212 49.2413 41.83C49.1377 42.5839 49.1343 43.6054 49.1343 45.1774V52.8632C49.1343 53.7284 48.4173 54.4297 47.5327 54.4297C46.6482 54.4297 45.9312 53.7284 45.9312 52.8632V45.1774C45.9312 45.1427 45.9312 45.1081 45.9312 45.0736C45.9311 43.6346 45.931 42.4001 46.0668 41.4126C46.212 40.3564 46.5383 39.3515 47.3708 38.5373C48.2032 37.7231 49.2307 37.4039 50.3106 37.2619C51.3203 37.1291 52.5825 37.1292 54.0538 37.1293Z" fill="#EC2327"/>
<path fill-rule="evenodd" clip-rule="evenodd" d="M65.0302 39.9009C65.0302 38.4391 66.2418 37.2542 67.7362 37.2542H75.468C78.1825 37.2542 80.3831 39.4064 80.3831 42.0614V43.8272C80.3831 46.4822 78.1825 48.6345 75.468 48.6345H68.2333V52.8643C68.2333 53.7295 67.5162 54.4308 66.6318 54.4308C65.7472 54.4308 65.0302 53.7295 65.0302 52.8643V39.9009ZM68.2333 45.5017H75.468C76.4135 45.5017 77.18 44.752 77.18 43.8272V42.0614C77.18 41.1367 76.4135 40.387 75.468 40.387H68.2333V45.5017Z" fill="#EC2327"/>
<path fill-rule="evenodd" clip-rule="evenodd" d="M192.911 39.8629C192.911 38.4012 194.123 37.2162 195.618 37.2162H203.349C206.064 37.2162 208.265 39.3685 208.265 42.0235V43.7893C208.265 46.4442 206.064 48.5965 203.349 48.5965H196.115V52.8264C196.115 53.6915 195.398 54.3928 194.513 54.3928C193.628 54.3928 192.911 53.6915 192.911 52.8264V39.8629ZM196.115 45.4638H203.349C204.295 45.4638 205.061 44.7141 205.061 43.7893V42.0235C205.061 41.0987 204.295 40.349 203.349 40.349H196.115V45.4638Z" fill="#0070C0"/>
<path fill-rule="evenodd" clip-rule="evenodd" d="M232.491 37.2853L232.415 37.2853C231.961 37.2851 231.475 37.285 231.065 37.3388C230.587 37.4017 229.981 37.5628 229.472 38.0605C228.964 38.5583 228.799 39.1503 228.735 39.6182C228.68 40.019 228.68 40.4947 228.68 40.9392V41.0123V45.2537C228.68 45.2572 228.68 45.2608 228.68 45.2645C228.68 45.2675 228.68 45.2705 228.68 45.2735V52.8265C228.68 53.6916 229.397 54.3929 230.281 54.3929C230.364 54.3929 230.445 54.3868 230.525 54.375C230.604 54.3868 230.685 54.3929 230.768 54.3929H239.67H239.761C240.184 54.3931 240.541 54.3934 240.864 54.3518C243.07 54.0678 244.805 52.3703 245.095 50.2131C245.138 49.8976 245.138 49.5476 245.138 49.1348V49.0455V48.9562C245.138 48.5435 245.138 48.1935 245.095 47.8779C244.939 46.7178 244.365 45.6908 243.525 44.9449C244.188 44.1582 244.585 43.1504 244.585 42.0236C244.585 39.3686 242.385 37.2853 239.67 37.2853H232.491ZM231.883 46.6901V51.2601H239.67C240.235 51.2601 240.361 51.2567 240.446 51.2458C241.214 51.1468 241.818 50.5556 241.92 49.8041C241.931 49.721 241.935 49.597 241.935 49.0455C241.935 48.494 241.931 48.37 241.92 48.2868C241.818 47.5354 241.214 46.8034 240.446 46.7045C240.361 46.6935 240.235 46.6901 239.67 46.6901H231.883ZM239.67 43.698H231.883V41.0123C231.883 40.7733 231.883 40.5841 231.886 40.4216C232.053 40.4182 232.247 40.4182 232.491 40.4182H239.67C240.615 40.4182 241.382 41.0988 241.382 42.0236C241.382 42.9484 240.615 43.698 239.67 43.698Z" fill="#0070C0"/>
<path fill-rule="evenodd" clip-rule="evenodd" d="M129.093 37.1984C129.125 37.1984 129.155 37.1984 129.186 37.1984C129.218 37.1984 129.249 37.1984 129.28 37.1984C130.582 37.1983 131.7 37.1983 132.606 37.293C133.568 37.3936 134.501 37.6176 135.324 38.2032C135.688 38.4619 136.013 38.7637 136.292 39.1008C136.923 39.8641 137.165 40.7291 137.273 41.6216C137.375 42.4621 137.375 43.4987 137.375 44.7064V47.065C137.375 48.2726 137.375 49.3093 137.273 50.1497C137.165 51.0422 136.923 51.9073 136.292 52.6705C136.013 53.0076 135.688 53.3094 135.324 53.568C134.501 54.1537 133.568 54.3776 132.606 54.4783C131.7 54.573 130.582 54.573 129.28 54.573H129.093C127.792 54.573 126.674 54.573 125.768 54.4783C124.805 54.3776 123.872 54.1537 123.049 53.568C122.686 53.3094 122.361 53.0076 122.081 52.6705C121.45 51.9073 121.208 51.0422 121.1 50.1497C120.998 49.3093 120.998 48.2725 120.998 47.0649V44.7929C120.998 44.764 120.998 44.7351 120.998 44.7064C120.998 43.4987 120.998 42.4621 121.1 41.6216C121.208 40.7291 121.45 39.8641 122.081 39.1008C122.361 38.7637 122.686 38.4619 123.049 38.2032C123.872 37.6176 124.805 37.3936 125.768 37.293C126.674 37.1983 127.792 37.1983 129.093 37.1984ZM125.926 40.442C125.268 40.5108 125.035 40.6255 124.905 40.7173C124.779 40.8074 124.665 40.9125 124.568 41.03C124.47 41.1496 124.346 41.3667 124.272 41.9766C124.194 42.6183 124.191 43.4745 124.191 44.7929V46.9784C124.191 48.2968 124.194 49.153 124.272 49.7947C124.346 50.4046 124.47 50.6217 124.568 50.7413C124.665 50.8588 124.779 50.9639 124.905 51.054C125.035 51.1457 125.268 51.2605 125.926 51.3293C126.618 51.4016 127.765 51.404 129.186 51.404C130.608 51.404 131.845 51.4016 132.536 51.3293C133.194 51.2605 133.428 51.1457 133.557 51.054C133.684 50.9639 133.797 50.8588 133.895 50.7413C133.993 50.6217 134.117 50.4046 134.191 49.7947C134.269 49.153 134.272 48.2968 134.272 46.9784V44.7929C134.272 43.4745 134.269 42.6183 134.191 41.9766C134.117 41.3667 133.993 41.1496 133.895 41.03C133.797 40.9125 133.684 40.8074 133.557 40.7173C133.428 40.6255 133.194 40.5108 132.536 40.442C131.845 40.3697 130.608 40.3673 129.186 40.3673C127.765 40.3673 126.618 40.3697 125.926 40.442Z" fill="#0070C0"/>
<path fill-rule="evenodd" clip-rule="evenodd" d="M90.5268 37.1984C90.5578 37.1984 90.5889 37.1984 90.6201 37.1984C90.6513 37.1984 90.6824 37.1984 90.7134 37.1984C92.0154 37.1983 93.1333 37.1983 94.0395 37.293C95.0018 37.3936 95.9344 37.6176 96.7574 38.2032C97.1209 38.4619 97.4463 38.7637 97.7252 39.1008C98.3567 39.8641 98.5981 40.7291 98.7067 41.6216C98.8088 42.4621 98.8088 43.4987 98.8087 44.7064V47.065C98.8088 48.2726 98.8088 49.3093 98.7067 50.1497C98.5981 51.0422 98.3567 51.9073 97.7252 52.6705C97.4463 53.0076 97.1209 53.3094 96.7574 53.568C95.9344 54.1537 95.0018 54.3776 94.0395 54.4783C93.1333 54.573 92.0154 54.573 90.7134 54.573H90.5269C89.2248 54.573 88.1069 54.573 87.2007 54.4783C86.2384 54.3776 85.3058 54.1537 84.4828 53.568C84.1193 53.3094 83.7939 53.0076 83.515 52.6705C82.8835 51.9073 82.6421 51.0422 82.5336 50.1497C82.4314 49.3093 82.4314 48.2725 82.4315 47.0649V44.7929C82.4315 44.764 82.4315 44.7351 82.4315 44.7064C82.4314 43.4987 82.4314 42.4621 82.5336 41.6216C82.6421 40.7291 82.8835 39.8641 83.515 39.1008C83.7939 38.7637 84.1193 38.4619 84.4828 38.2032C85.3058 37.6176 86.2384 37.3936 87.2007 37.293C88.1069 37.1983 89.2248 37.1983 90.5268 37.1984ZM87.3597 40.442C86.7021 40.5108 86.468 40.6255 86.339 40.7173C86.2124 40.8074 86.0991 40.9125 86.0019 41.03C85.9029 41.1496 85.7792 41.3667 85.7051 41.9766C85.6271 42.6183 85.6245 43.4745 85.6245 44.7929V46.9784C85.6245 48.2968 85.6271 49.153 85.7051 49.7947C85.7792 50.4046 85.9029 50.6217 86.0019 50.7413C86.0991 50.8588 86.2124 50.9639 86.339 51.054C86.468 51.1457 86.7021 51.2605 87.3597 51.3293C88.0516 51.4016 89.1985 51.404 90.6201 51.404C92.0417 51.404 93.2778 51.4016 93.9698 51.3293C94.6273 51.2605 94.8614 51.1457 94.9904 51.054C95.117 50.9639 95.2303 50.8588 95.3275 50.7413C95.4264 50.6217 95.5502 50.4046 95.6243 49.7947C95.7023 49.153 95.7048 48.2968 95.7048 46.9784V44.7929C95.7048 43.4745 95.7023 42.6183 95.6243 41.9766C95.5502 41.3667 95.4264 41.1496 95.3275 41.03C95.2303 40.9125 95.117 40.8074 94.9904 40.7173C94.8614 40.6255 94.6273 40.5108 93.9698 40.442C93.2778 40.3697 92.0417 40.3673 90.6201 40.3673C89.1985 40.3673 88.0516 40.3697 87.3597 40.442Z" fill="#EC2327"/>
<path fill-rule="evenodd" clip-rule="evenodd" d="M182.371 37.2051C182.402 37.2051 182.433 37.2051 182.464 37.2051C182.495 37.2051 182.526 37.2051 182.557 37.2051C183.859 37.205 184.978 37.205 185.884 37.2997C186.846 37.4003 187.778 37.6243 188.602 38.2099C188.965 38.4686 189.291 38.7704 189.569 39.1076C190.201 39.8708 190.442 40.7358 190.551 41.6283C190.653 42.4688 190.653 43.5054 190.653 44.7131V47.0717C190.653 48.2793 190.653 49.3159 190.551 50.1564C190.442 51.0489 190.201 51.914 189.569 52.6772C189.291 53.0143 188.965 53.3161 188.602 53.5748C187.778 54.1604 186.846 54.3844 185.884 54.485C184.978 54.5797 183.859 54.5797 182.557 54.5797H182.371C181.069 54.5797 179.951 54.5797 179.045 54.485C178.082 54.3844 177.15 54.1604 176.327 53.5748C175.964 53.3161 175.638 53.0143 175.359 52.6772C174.728 51.914 174.486 51.0489 174.378 50.1564C174.276 49.3159 174.276 48.2793 174.276 47.0717V44.7996C174.276 44.7707 174.276 44.7418 174.276 44.7131C174.276 43.5055 174.276 42.4688 174.378 41.6283C174.486 40.7358 174.728 39.8708 175.359 39.1076C175.638 38.7704 175.964 38.4686 176.327 38.2099C177.15 37.6243 178.082 37.4003 179.045 37.2997C179.951 37.205 181.069 37.205 182.371 37.2051ZM179.204 40.4487C178.546 40.5175 178.312 40.6322 178.183 40.724C178.057 40.8141 177.943 40.9193 177.846 41.0367C177.747 41.1563 177.624 41.3735 177.549 41.9833C177.472 42.625 177.468 43.4812 177.468 44.7996V46.9851C177.468 48.3035 177.472 49.1597 177.549 49.8014C177.624 50.4113 177.747 50.6284 177.846 50.7481C177.943 50.8655 178.057 50.9706 178.183 51.0607C178.312 51.1525 178.546 51.2672 179.204 51.336C179.895 51.4084 181.042 51.4107 182.464 51.4107C183.886 51.4107 185.122 51.4084 185.814 51.336C186.472 51.2672 186.705 51.1525 186.835 51.0607C186.962 50.9706 187.075 50.8655 187.172 50.7481C187.271 50.6284 187.395 50.4113 187.468 49.8014C187.547 49.1597 187.549 48.3035 187.549 46.9851V44.7996C187.549 43.4812 187.547 42.625 187.468 41.9833C187.395 41.3735 187.271 41.1563 187.172 41.0367C187.075 40.9193 186.962 40.8141 186.835 40.724C186.705 40.6322 186.472 40.5175 185.814 40.4487C185.122 40.3764 183.886 40.374 182.464 40.374C181.042 40.374 179.895 40.3764 179.204 40.4487Z" fill="#0070C0"/>
<path fill-rule="evenodd" clip-rule="evenodd" d="M218.252 37.2073C218.284 37.2073 218.315 37.2073 218.346 37.2073C218.377 37.2073 218.408 37.2073 218.439 37.2073C219.741 37.2072 220.859 37.2072 221.765 37.3019C222.728 37.4025 223.66 37.6265 224.483 38.2121C224.847 38.4708 225.171 38.7726 225.451 39.1098C226.082 39.873 226.324 40.738 226.432 41.6305C226.535 42.471 226.535 43.5076 226.535 44.7153V47.0739C226.535 48.2815 226.535 49.3182 226.432 50.1587C226.324 51.0511 226.082 51.9162 225.451 52.6794C225.171 53.0165 224.847 53.3183 224.483 53.577C223.66 54.1626 222.728 54.3866 221.765 54.4872C220.859 54.5819 219.741 54.5819 218.439 54.5819H218.253C216.951 54.5819 215.832 54.5819 214.926 54.4872C213.964 54.3866 213.031 54.1626 212.208 53.577C211.845 53.3183 211.52 53.0165 211.241 52.6794C210.609 51.9162 210.368 51.0511 210.259 50.1587C210.158 49.3181 210.158 48.2815 210.158 47.0739V44.8019C210.158 44.7729 210.158 44.744 210.158 44.7153C210.158 43.5077 210.158 42.471 210.259 41.6305C210.368 40.738 210.609 39.873 211.241 39.1098C211.52 38.7726 211.845 38.4708 212.208 38.2121C213.031 37.6265 213.964 37.4025 214.926 37.3019C215.832 37.2072 216.951 37.2072 218.252 37.2073ZM215.085 40.4509C214.428 40.5197 214.194 40.6344 214.065 40.7262C213.938 40.8163 213.825 40.9215 213.728 41.0389C213.628 41.1585 213.505 41.3757 213.431 41.9855C213.353 42.6272 213.35 43.4834 213.35 44.8019V46.9873C213.35 48.3057 213.353 49.1619 213.431 49.8036C213.505 50.4135 213.628 50.6306 213.728 50.7503C213.825 50.8677 213.938 50.9728 214.065 51.0629C214.194 51.1547 214.428 51.2695 215.085 51.3382C215.778 51.4106 216.924 51.4129 218.346 51.4129C219.768 51.4129 221.003 51.4106 221.695 51.3382C222.353 51.2695 222.587 51.1547 222.716 51.0629C222.843 50.9728 222.956 50.8677 223.053 50.7503C223.152 50.6306 223.276 50.4135 223.35 49.8036C223.428 49.1619 223.43 48.3057 223.43 46.9873V44.8019C223.43 43.4834 223.428 42.6272 223.35 41.9855C223.276 41.3757 223.152 41.1585 223.053 41.0389C222.956 40.9215 222.843 40.8163 222.716 40.7262C222.587 40.6344 222.353 40.5197 221.695 40.4509C221.003 40.3786 219.768 40.3762 218.346 40.3762C216.924 40.3762 215.778 40.3786 215.085 40.4509Z" fill="#0070C0"/>
<path fill-rule="evenodd" clip-rule="evenodd" d="M115.011 51.3734L110.062 40.6173L105.133 51.3734H115.011ZM118.335 51.3734L112.257 38.2418C111.64 36.9871 108.47 36.9763 107.861 38.2402L101.789 51.3734H101.468C100.583 51.3734 99.866 52.0484 99.866 52.8811C99.866 53.7137 100.583 54.3888 101.468 54.3888H118.658C119.542 54.3888 120.26 53.7137 120.26 52.8811C120.26 52.0484 119.542 51.3734 118.658 51.3734H118.335Z" fill="#0070C0"/>
<path fill-rule="evenodd" clip-rule="evenodd" d="M154.47 40.083L146.335 45.8194L154.923 51.5002C155.655 51.9849 155.848 52.9587 155.352 53.6753C154.857 54.392 153.861 54.58 153.128 54.0954L143.924 48.0071C143.521 47.7408 143.221 47.3949 143.022 47.0099V52.826C143.022 53.6911 142.305 54.3925 141.421 54.3925C140.536 54.3925 139.82 53.6911 139.82 52.826V38.7822C139.82 37.9171 140.536 37.2158 141.421 37.2158C142.305 37.2158 143.022 37.9171 143.022 38.7822V44.6197C143.225 44.2266 143.534 43.8745 143.948 43.6065L152.703 37.4691C153.441 36.9922 154.435 37.1908 154.923 37.9126C155.41 38.6344 155.207 39.6061 154.47 40.083Z" fill="#0070C0"/>
<path fill-rule="evenodd" clip-rule="evenodd" d="M156.87 38.7849C156.87 37.9198 157.587 37.2185 158.472 37.2185H171.726C172.61 37.2185 173.328 37.9198 173.328 38.7849C173.328 39.65 172.61 40.3513 171.726 40.3513H158.472C157.587 40.3513 156.87 39.65 156.87 38.7849Z" fill="#0070C0"/>
<path fill-rule="evenodd" clip-rule="evenodd" d="M165.099 37.2987C165.983 37.2987 166.7 38 166.7 38.8651V52.9089C166.7 53.774 165.983 54.4753 165.099 54.4753C164.214 54.4753 163.497 53.774 163.497 52.9089V38.8651C163.497 38 164.214 37.2987 165.099 37.2987Z" fill="#0070C0"/>
</g>
</g>
<defs>
<clipPath id="clip0_22_1658">
<rect width="200" height="17.6923" fill="white" transform="translate(45.5 37)"/>
</clipPath>
</defs>
</svg>
